<svg version="1.2" baseProfile="tiny-ps" xmlns="http://www.w3.org/2000/svg" viewBox="0 0 95 30" width="95" height="30">
	<title>Layer</title>
	<style>
		tspan { white-space:pre }
		.s0 { fill: #00baf2 } 
		.s1 { fill: #1f336b } 
	</style>
	<g id="Layer">
		<path id="Layer" class="s0" d="m94.03 8.75c0.18 0.52 0.32 1.02 0.32 2.2v17.36c0 0.51-0.41 0.92-0.92 0.92h-4.17c-0.51 0-0.92-0.41-0.92-0.92l-0.02-16.14c0-0.8-0.54-1.48-1.45-1.56h-0.77c-0.3 0.03-0.55 0.12-0.77 0.26c-0.43 0.29-0.68 0.77-0.68 1.3l0 16.23c-0.02 0.49-0.42 0.88-0.92 0.88h-4.17c-0.51 0-0.92-0.41-0.92-0.93l-0.02-16.16c0-0.49-0.2-0.93-0.57-1.22c-0.23-0.19-0.53-0.31-0.88-0.34h-0.77c-0.84 0.07-1.37 0.67-1.44 1.4c0 0.01 0 0.03 0 0.04c0 0.01 0 0.03 0 0.04c0 0.01 0 0.03 0 0.04c0 0.01 0 0.03 0 0.04l0 16.24c-0.06 0.45-0.44 0.8-0.91 0.8h-4.17c-0.51 0-0.92-0.41-0.92-0.92v-22.63c0-0.51 0.41-0.92 0.92-0.92h4.17c0.48 0 0.88 0.37 0.91 0.85v0.48c1.09-0.94 2.51-1.51 4.07-1.51h0.06c1.77 0 3.36 0.73 4.5 1.91c1.13-1.18 2.73-1.91 4.5-1.91h0.06c2.72 0 5.04 1.74 5.89 4.17m-28.26-3.93c0.51 0 0.92 0.41 0.92 0.92v4.17c0 0.51-0.41 0.92-0.92 0.92h-2.34l0 17.67c0 0.5-0.41 0.91-0.91 0.91h-4.13c-0.5 0-0.91-0.41-0.91-0.91l0-17.67h-2.52c-0.51 0-0.92-0.41-0.92-0.92v-4.17c0-0.44 0.31-0.8 0.72-0.9l0 0h0c0.06-0.01 0.13-0.02 0.2-0.02h0.47c4.83-0.31 4.3-3.97 6.95-4.7c0.05-0.01 0.1-0.02 0.16-0.02c0.47 0 0.84 0.38 0.84 0.84v3.87h2.39" />
		<path id="Layer" fill-rule="evenodd" class="s1" d="m50.76 4.82c0.51 0 0.92 0.41 0.92 0.92v17.43c0 3.59-2.56 6.14-6.16 6.14h-6.82c-0.51 0-0.92-0.41-0.92-0.92v-4.16c0-0.51 0.41-0.92 0.92-0.92l6.1-0.02c0.03 0 0.05-0.01 0.07-0.01c0.48-0.06 0.85-0.47 0.85-0.96c0-0.5-0.38-0.91-0.87-0.96c-0.08-0.02-2.78-0.02-2.78-0.02c-3.59 0-6.16-2.56-6.16-6.14v-9.44c0-0.51 0.41-0.92 0.92-0.92h4.17c0.51 0 0.92 0.41 0.92 0.92l0.02 8.6c0 0.54 0.44 0.98 0.98 0.98h1.75c0.54 0 0.97-0.43 0.98-0.96v-8.62c0-0.51 0.41-0.92 0.92-0.92h4.17m-40.03 0c3.34 0 5.67 2.32 5.67 5.67v5.88c0 3.35-2.33 5.66-5.67 5.66h-3.99l-0.02 6.33c0 0.51-0.41 0.92-0.92 0.92h-4.25c-0.47-0.01-0.84-0.42-0.84-0.92v-18.48c0-0.02 0-0.04 0-0.06c0-0.01 0-0.02 0-0.02v-4.08c0-0.5 0.4-0.9 0.91-0.9h9.12l0 0zm-0.37 7.01c0-0.54-0.44-0.98-0.98-0.98h-2.65v5.15l2.65 0c0.54 0 0.98-0.44 0.98-0.98v-3.2zm16.65-6.99c4.73 0 6.71 2.42 6.71 6.25v15.81c0 1.26-1.1 2.29-2.46 2.29h-7.57c-3.61 0-5.83-2.39-5.83-5.76v-4.84c0-3.38 2.59-5.79 6.22-5.79h2.73c0.42-0.04 0.76-0.38 0.81-0.86v-0.54c-0.05-0.5-0.39-0.81-0.83-0.88h-5.51c-0.54 0-0.98-0.41-0.98-0.92v-2.22c0-0.01 0-0.02 0-0.04c0-0.01 0-0.02 0-0.03v-1.62c0-0.48 0.41-0.86 0.93-0.86h5.79zm0.66 14.48c0-0.51-0.44-0.92-0.98-0.92h-1.74c-0.54 0-0.98 0.41-0.98 0.91l0 0.01v0.65l0 2.09c0 0.01 0 0.02 0 0.03v0.79c0 0.51 0.44 0.92 0.98 0.92h1.74c0.43 0 0.8-0.26 0.93-0.63c0-0.01 0.01-0.02 0.01-0.03c0-0.01 0.01-0.02 0.01-0.03c0-0.01 0.01-0.02 0.01-0.03c0-0.01 0.01-0.02 0.01-0.03c0.01-0.05 0.02-0.1 0.02-0.15v-0.65l0-2.91z" />
	</g>
</svg>